<mxfile host="app.diagrams.net" agent="Mozilla/5.0 (Windows NT 10.0; Win64; x64) AppleWebKit/537.36 (KHTML, like Gecko) Chrome/134.0.0.0 Safari/537.36 Edg/134.0.0.0" version="26.1.1">
  <diagram name="第 1 页" id="jB9Zdp55F9e-bQfR2lEE">
    <mxGraphModel dx="1426" dy="781" grid="1" gridSize="10" guides="1" tooltips="1" connect="1" arrows="1" fold="1" page="1" pageScale="1" pageWidth="827" pageHeight="1169" math="0" shadow="0">
      <root>
        <mxCell id="0" />
        <mxCell id="1" parent="0" />
        <mxCell id="uw-DFVBwl9FURzbB3nBO-1" value="" style="endArrow=none;html=1;rounded=0;strokeWidth=3;" edge="1" parent="1">
          <mxGeometry width="50" height="50" relative="1" as="geometry">
            <mxPoint x="46" y="655" as="sourcePoint" />
            <mxPoint x="736" y="655" as="targetPoint" />
          </mxGeometry>
        </mxCell>
        <mxCell id="uw-DFVBwl9FURzbB3nBO-2" value="&lt;font style=&quot;font-size: 18px;&quot;&gt;采集服务&lt;/font&gt;" style="rounded=1;whiteSpace=wrap;html=1;shadow=0;glass=0;fillColor=#f5f5f5;fontColor=#333333;strokeColor=#666666;" vertex="1" parent="1">
          <mxGeometry x="132" y="685" width="510" height="70" as="geometry" />
        </mxCell>
        <mxCell id="uw-DFVBwl9FURzbB3nBO-7" value="" style="edgeStyle=orthogonalEdgeStyle;rounded=0;orthogonalLoop=1;jettySize=auto;html=1;" edge="1" parent="1" source="uw-DFVBwl9FURzbB3nBO-3" target="uw-DFVBwl9FURzbB3nBO-2">
          <mxGeometry relative="1" as="geometry" />
        </mxCell>
        <mxCell id="uw-DFVBwl9FURzbB3nBO-3" value="IED 1" style="rounded=1;whiteSpace=wrap;html=1;" vertex="1" parent="1">
          <mxGeometry x="172" y="795" width="60" height="30" as="geometry" />
        </mxCell>
        <mxCell id="uw-DFVBwl9FURzbB3nBO-8" style="edgeStyle=orthogonalEdgeStyle;rounded=0;orthogonalLoop=1;jettySize=auto;html=1;entryX=0.5;entryY=1;entryDx=0;entryDy=0;" edge="1" parent="1" source="uw-DFVBwl9FURzbB3nBO-4" target="uw-DFVBwl9FURzbB3nBO-2">
          <mxGeometry relative="1" as="geometry" />
        </mxCell>
        <mxCell id="uw-DFVBwl9FURzbB3nBO-4" value="IED 2" style="rounded=1;whiteSpace=wrap;html=1;" vertex="1" parent="1">
          <mxGeometry x="312" y="795" width="60" height="30" as="geometry" />
        </mxCell>
        <mxCell id="uw-DFVBwl9FURzbB3nBO-9" style="edgeStyle=orthogonalEdgeStyle;rounded=0;orthogonalLoop=1;jettySize=auto;html=1;entryX=0.5;entryY=1;entryDx=0;entryDy=0;" edge="1" parent="1" source="uw-DFVBwl9FURzbB3nBO-5" target="uw-DFVBwl9FURzbB3nBO-2">
          <mxGeometry relative="1" as="geometry" />
        </mxCell>
        <mxCell id="uw-DFVBwl9FURzbB3nBO-5" value="IED N" style="rounded=1;whiteSpace=wrap;html=1;" vertex="1" parent="1">
          <mxGeometry x="512" y="795" width="60" height="30" as="geometry" />
        </mxCell>
        <mxCell id="uw-DFVBwl9FURzbB3nBO-6" value="&lt;font style=&quot;font-size: 17px;&quot;&gt;&lt;b&gt;......&lt;/b&gt;&lt;/font&gt;" style="text;html=1;align=center;verticalAlign=middle;whiteSpace=wrap;rounded=0;strokeWidth=3;" vertex="1" parent="1">
          <mxGeometry x="412" y="795" width="60" height="30" as="geometry" />
        </mxCell>
        <mxCell id="uw-DFVBwl9FURzbB3nBO-47" style="edgeStyle=orthogonalEdgeStyle;rounded=0;orthogonalLoop=1;jettySize=auto;html=1;entryX=1;entryY=0.5;entryDx=0;entryDy=0;" edge="1" parent="1" source="uw-DFVBwl9FURzbB3nBO-11" target="uw-DFVBwl9FURzbB3nBO-19">
          <mxGeometry relative="1" as="geometry">
            <Array as="points">
              <mxPoint x="560" y="464" />
              <mxPoint x="560" y="260" />
            </Array>
          </mxGeometry>
        </mxCell>
        <mxCell id="uw-DFVBwl9FURzbB3nBO-48" style="edgeStyle=orthogonalEdgeStyle;rounded=0;orthogonalLoop=1;jettySize=auto;html=1;entryX=1;entryY=0.5;entryDx=0;entryDy=0;" edge="1" parent="1" source="uw-DFVBwl9FURzbB3nBO-11" target="uw-DFVBwl9FURzbB3nBO-22">
          <mxGeometry relative="1" as="geometry">
            <Array as="points">
              <mxPoint x="560" y="464" />
              <mxPoint x="560" y="340" />
            </Array>
          </mxGeometry>
        </mxCell>
        <mxCell id="uw-DFVBwl9FURzbB3nBO-49" style="edgeStyle=orthogonalEdgeStyle;rounded=0;orthogonalLoop=1;jettySize=auto;html=1;entryX=1;entryY=0.5;entryDx=0;entryDy=0;" edge="1" parent="1" source="uw-DFVBwl9FURzbB3nBO-11" target="uw-DFVBwl9FURzbB3nBO-18">
          <mxGeometry relative="1" as="geometry">
            <Array as="points">
              <mxPoint x="560" y="464" />
              <mxPoint x="560" y="420" />
            </Array>
          </mxGeometry>
        </mxCell>
        <mxCell id="uw-DFVBwl9FURzbB3nBO-50" style="edgeStyle=orthogonalEdgeStyle;rounded=0;orthogonalLoop=1;jettySize=auto;html=1;entryX=1;entryY=0.5;entryDx=0;entryDy=0;" edge="1" parent="1" source="uw-DFVBwl9FURzbB3nBO-11" target="uw-DFVBwl9FURzbB3nBO-17">
          <mxGeometry relative="1" as="geometry">
            <Array as="points">
              <mxPoint x="560" y="464" />
              <mxPoint x="560" y="510" />
            </Array>
          </mxGeometry>
        </mxCell>
        <mxCell id="uw-DFVBwl9FURzbB3nBO-52" style="edgeStyle=orthogonalEdgeStyle;rounded=0;orthogonalLoop=1;jettySize=auto;html=1;entryX=0.5;entryY=1;entryDx=0;entryDy=0;" edge="1" parent="1" source="uw-DFVBwl9FURzbB3nBO-11" target="uw-DFVBwl9FURzbB3nBO-16">
          <mxGeometry relative="1" as="geometry">
            <Array as="points">
              <mxPoint x="560" y="464" />
              <mxPoint x="560" y="645" />
              <mxPoint x="440" y="645" />
            </Array>
          </mxGeometry>
        </mxCell>
        <mxCell id="uw-DFVBwl9FURzbB3nBO-11" value="内存" style="shape=cylinder3;whiteSpace=wrap;html=1;boundedLbl=1;backgroundOutline=1;size=15;fillColor=#fff2cc;strokeColor=#d6b656;" vertex="1" parent="1">
          <mxGeometry x="590" y="485" width="60" height="80" as="geometry" />
        </mxCell>
        <mxCell id="uw-DFVBwl9FURzbB3nBO-54" style="edgeStyle=orthogonalEdgeStyle;rounded=0;orthogonalLoop=1;jettySize=auto;html=1;entryX=0.5;entryY=0;entryDx=0;entryDy=0;exitX=0;exitY=0;exitDx=0;exitDy=52.5;exitPerimeter=0;" edge="1" parent="1" source="uw-DFVBwl9FURzbB3nBO-12" target="uw-DFVBwl9FURzbB3nBO-18">
          <mxGeometry relative="1" as="geometry">
            <mxPoint x="590" y="380" as="sourcePoint" />
            <Array as="points">
              <mxPoint x="580" y="362" />
              <mxPoint x="580" y="380" />
              <mxPoint x="440" y="380" />
            </Array>
          </mxGeometry>
        </mxCell>
        <mxCell id="uw-DFVBwl9FURzbB3nBO-55" style="edgeStyle=orthogonalEdgeStyle;rounded=0;orthogonalLoop=1;jettySize=auto;html=1;entryX=0.5;entryY=0;entryDx=0;entryDy=0;" edge="1" parent="1" source="uw-DFVBwl9FURzbB3nBO-12" target="uw-DFVBwl9FURzbB3nBO-22">
          <mxGeometry relative="1" as="geometry">
            <Array as="points">
              <mxPoint x="620" y="300" />
              <mxPoint x="440" y="300" />
            </Array>
          </mxGeometry>
        </mxCell>
        <mxCell id="uw-DFVBwl9FURzbB3nBO-12" value="缓存队列" style="shape=cylinder3;whiteSpace=wrap;html=1;boundedLbl=1;backgroundOutline=1;size=15;fillColor=#d5e8d4;strokeColor=#82b366;" vertex="1" parent="1">
          <mxGeometry x="590" y="310" width="60" height="79" as="geometry" />
        </mxCell>
        <mxCell id="uw-DFVBwl9FURzbB3nBO-16" value="&lt;font style=&quot;font-size: 15px;&quot;&gt;控制服务&lt;/font&gt;" style="rounded=1;whiteSpace=wrap;html=1;" vertex="1" parent="1">
          <mxGeometry x="380" y="565" width="120" height="60" as="geometry" />
        </mxCell>
        <mxCell id="uw-DFVBwl9FURzbB3nBO-53" style="edgeStyle=orthogonalEdgeStyle;rounded=0;orthogonalLoop=1;jettySize=auto;html=1;exitX=0.5;exitY=0;exitDx=0;exitDy=0;" edge="1" parent="1" source="uw-DFVBwl9FURzbB3nBO-17">
          <mxGeometry relative="1" as="geometry">
            <mxPoint x="620" y="390" as="targetPoint" />
            <Array as="points">
              <mxPoint x="440" y="460" />
              <mxPoint x="621" y="460" />
            </Array>
          </mxGeometry>
        </mxCell>
        <mxCell id="uw-DFVBwl9FURzbB3nBO-17" value="&lt;font style=&quot;font-size: 15px;&quot;&gt;AGC/AVC&lt;/font&gt;" style="rounded=1;whiteSpace=wrap;html=1;" vertex="1" parent="1">
          <mxGeometry x="380" y="480" width="120" height="60" as="geometry" />
        </mxCell>
        <mxCell id="uw-DFVBwl9FURzbB3nBO-18" value="&lt;span style=&quot;font-size: 15px;&quot;&gt;监视服务&lt;/span&gt;" style="rounded=1;whiteSpace=wrap;html=1;" vertex="1" parent="1">
          <mxGeometry x="380" y="390" width="120" height="60" as="geometry" />
        </mxCell>
        <mxCell id="uw-DFVBwl9FURzbB3nBO-19" value="&lt;span style=&quot;font-size: 15px;&quot;&gt;查询服务&lt;/span&gt;" style="rounded=1;whiteSpace=wrap;html=1;" vertex="1" parent="1">
          <mxGeometry x="380" y="230" width="120" height="60" as="geometry" />
        </mxCell>
        <mxCell id="uw-DFVBwl9FURzbB3nBO-25" style="edgeStyle=orthogonalEdgeStyle;rounded=0;orthogonalLoop=1;jettySize=auto;html=1;entryX=0;entryY=0.5;entryDx=0;entryDy=0;" edge="1" parent="1" source="uw-DFVBwl9FURzbB3nBO-20" target="uw-DFVBwl9FURzbB3nBO-19">
          <mxGeometry relative="1" as="geometry" />
        </mxCell>
        <mxCell id="uw-DFVBwl9FURzbB3nBO-26" style="edgeStyle=orthogonalEdgeStyle;rounded=0;orthogonalLoop=1;jettySize=auto;html=1;entryX=0;entryY=0.5;entryDx=0;entryDy=0;" edge="1" parent="1" source="uw-DFVBwl9FURzbB3nBO-20" target="uw-DFVBwl9FURzbB3nBO-22">
          <mxGeometry relative="1" as="geometry" />
        </mxCell>
        <mxCell id="uw-DFVBwl9FURzbB3nBO-27" style="edgeStyle=orthogonalEdgeStyle;rounded=0;orthogonalLoop=1;jettySize=auto;html=1;entryX=0;entryY=0.5;entryDx=0;entryDy=0;" edge="1" parent="1" source="uw-DFVBwl9FURzbB3nBO-20" target="uw-DFVBwl9FURzbB3nBO-18">
          <mxGeometry relative="1" as="geometry" />
        </mxCell>
        <mxCell id="uw-DFVBwl9FURzbB3nBO-28" style="edgeStyle=orthogonalEdgeStyle;rounded=0;orthogonalLoop=1;jettySize=auto;html=1;entryX=0;entryY=0.5;entryDx=0;entryDy=0;" edge="1" parent="1" source="uw-DFVBwl9FURzbB3nBO-20" target="uw-DFVBwl9FURzbB3nBO-17">
          <mxGeometry relative="1" as="geometry" />
        </mxCell>
        <mxCell id="uw-DFVBwl9FURzbB3nBO-29" style="edgeStyle=orthogonalEdgeStyle;rounded=0;orthogonalLoop=1;jettySize=auto;html=1;entryX=0;entryY=0.5;entryDx=0;entryDy=0;" edge="1" parent="1" source="uw-DFVBwl9FURzbB3nBO-20" target="uw-DFVBwl9FURzbB3nBO-16">
          <mxGeometry relative="1" as="geometry" />
        </mxCell>
        <mxCell id="uw-DFVBwl9FURzbB3nBO-20" value="&lt;span style=&quot;font-size: 15px;&quot;&gt;运维服务&lt;/span&gt;" style="rounded=1;whiteSpace=wrap;html=1;" vertex="1" parent="1">
          <mxGeometry x="190" y="370" width="120" height="60" as="geometry" />
        </mxCell>
        <mxCell id="uw-DFVBwl9FURzbB3nBO-30" style="edgeStyle=orthogonalEdgeStyle;rounded=0;orthogonalLoop=1;jettySize=auto;html=1;entryX=0;entryY=0.5;entryDx=0;entryDy=0;" edge="1" parent="1" source="uw-DFVBwl9FURzbB3nBO-21" target="uw-DFVBwl9FURzbB3nBO-18">
          <mxGeometry relative="1" as="geometry" />
        </mxCell>
        <mxCell id="uw-DFVBwl9FURzbB3nBO-56" style="edgeStyle=orthogonalEdgeStyle;rounded=0;orthogonalLoop=1;jettySize=auto;html=1;" edge="1" parent="1" source="uw-DFVBwl9FURzbB3nBO-21">
          <mxGeometry relative="1" as="geometry">
            <mxPoint x="250" y="680" as="targetPoint" />
          </mxGeometry>
        </mxCell>
        <mxCell id="uw-DFVBwl9FURzbB3nBO-21" value="&lt;span style=&quot;font-size: 15px;&quot;&gt;配置服务&lt;/span&gt;" style="rounded=1;whiteSpace=wrap;html=1;" vertex="1" parent="1">
          <mxGeometry x="190" y="470" width="120" height="60" as="geometry" />
        </mxCell>
        <mxCell id="uw-DFVBwl9FURzbB3nBO-22" value="&lt;span style=&quot;font-size: 15px;&quot;&gt;历史服务&lt;/span&gt;" style="rounded=1;whiteSpace=wrap;html=1;" vertex="1" parent="1">
          <mxGeometry x="380" y="310" width="120" height="60" as="geometry" />
        </mxCell>
        <mxCell id="uw-DFVBwl9FURzbB3nBO-35" style="edgeStyle=orthogonalEdgeStyle;rounded=0;orthogonalLoop=1;jettySize=auto;html=1;entryX=0;entryY=0.5;entryDx=0;entryDy=0;" edge="1" parent="1" source="uw-DFVBwl9FURzbB3nBO-23" target="uw-DFVBwl9FURzbB3nBO-20">
          <mxGeometry relative="1" as="geometry" />
        </mxCell>
        <mxCell id="uw-DFVBwl9FURzbB3nBO-23" value="对象存储" style="shape=cylinder3;whiteSpace=wrap;html=1;boundedLbl=1;backgroundOutline=1;size=15;fillColor=#d5e8d4;strokeColor=#82b366;" vertex="1" parent="1">
          <mxGeometry x="80" y="309" width="60" height="80" as="geometry" />
        </mxCell>
        <mxCell id="uw-DFVBwl9FURzbB3nBO-31" style="edgeStyle=orthogonalEdgeStyle;rounded=0;orthogonalLoop=1;jettySize=auto;html=1;entryX=0;entryY=0.5;entryDx=0;entryDy=0;" edge="1" parent="1" source="uw-DFVBwl9FURzbB3nBO-24" target="uw-DFVBwl9FURzbB3nBO-21">
          <mxGeometry relative="1" as="geometry" />
        </mxCell>
        <mxCell id="uw-DFVBwl9FURzbB3nBO-24" value="配置存储" style="shape=cylinder3;whiteSpace=wrap;html=1;boundedLbl=1;backgroundOutline=1;size=15;fillColor=#fff2cc;strokeColor=#d6b656;" vertex="1" parent="1">
          <mxGeometry x="80" y="430" width="60" height="80" as="geometry" />
        </mxCell>
        <mxCell id="uw-DFVBwl9FURzbB3nBO-32" value="" style="endArrow=none;html=1;rounded=0;strokeWidth=3;" edge="1" parent="1">
          <mxGeometry width="50" height="50" relative="1" as="geometry">
            <mxPoint x="46" y="170" as="sourcePoint" />
            <mxPoint x="736" y="170" as="targetPoint" />
          </mxGeometry>
        </mxCell>
        <mxCell id="uw-DFVBwl9FURzbB3nBO-34" style="edgeStyle=orthogonalEdgeStyle;rounded=0;orthogonalLoop=1;jettySize=auto;html=1;" edge="1" parent="1" source="uw-DFVBwl9FURzbB3nBO-33" target="uw-DFVBwl9FURzbB3nBO-23">
          <mxGeometry relative="1" as="geometry">
            <Array as="points">
              <mxPoint x="190" y="220" />
              <mxPoint x="110" y="220" />
            </Array>
          </mxGeometry>
        </mxCell>
        <mxCell id="uw-DFVBwl9FURzbB3nBO-36" style="edgeStyle=orthogonalEdgeStyle;rounded=0;orthogonalLoop=1;jettySize=auto;html=1;" edge="1" parent="1" source="uw-DFVBwl9FURzbB3nBO-33" target="uw-DFVBwl9FURzbB3nBO-20">
          <mxGeometry relative="1" as="geometry" />
        </mxCell>
        <mxCell id="uw-DFVBwl9FURzbB3nBO-33" value="&lt;span style=&quot;font-size: 15px;&quot;&gt;远程运维&lt;/span&gt;" style="rounded=1;whiteSpace=wrap;html=1;" vertex="1" parent="1">
          <mxGeometry x="130" y="90" width="120" height="60" as="geometry" />
        </mxCell>
        <mxCell id="uw-DFVBwl9FURzbB3nBO-38" style="edgeStyle=orthogonalEdgeStyle;rounded=0;orthogonalLoop=1;jettySize=auto;html=1;entryX=0.5;entryY=0;entryDx=0;entryDy=0;startArrow=block;startFill=1;" edge="1" parent="1" source="uw-DFVBwl9FURzbB3nBO-37" target="uw-DFVBwl9FURzbB3nBO-19">
          <mxGeometry relative="1" as="geometry" />
        </mxCell>
        <mxCell id="uw-DFVBwl9FURzbB3nBO-37" value="&lt;span style=&quot;font-size: 15px;&quot;&gt;人机交互&lt;/span&gt;" style="rounded=1;whiteSpace=wrap;html=1;" vertex="1" parent="1">
          <mxGeometry x="300" y="90" width="120" height="60" as="geometry" />
        </mxCell>
        <mxCell id="uw-DFVBwl9FURzbB3nBO-39" style="edgeStyle=orthogonalEdgeStyle;rounded=0;orthogonalLoop=1;jettySize=auto;html=1;entryX=0;entryY=0.5;entryDx=0;entryDy=0;entryPerimeter=0;exitX=0.5;exitY=1;exitDx=0;exitDy=0;" edge="1" parent="1" source="uw-DFVBwl9FURzbB3nBO-37" target="uw-DFVBwl9FURzbB3nBO-24">
          <mxGeometry relative="1" as="geometry">
            <Array as="points">
              <mxPoint x="354" y="250" />
              <mxPoint x="60" y="250" />
              <mxPoint x="60" y="470" />
            </Array>
          </mxGeometry>
        </mxCell>
        <mxCell id="uw-DFVBwl9FURzbB3nBO-41" style="edgeStyle=orthogonalEdgeStyle;rounded=0;orthogonalLoop=1;jettySize=auto;html=1;entryX=1;entryY=0.5;entryDx=0;entryDy=0;" edge="1" parent="1" source="uw-DFVBwl9FURzbB3nBO-40" target="uw-DFVBwl9FURzbB3nBO-16">
          <mxGeometry relative="1" as="geometry">
            <Array as="points">
              <mxPoint x="540" y="595" />
            </Array>
          </mxGeometry>
        </mxCell>
        <mxCell id="uw-DFVBwl9FURzbB3nBO-42" style="edgeStyle=orthogonalEdgeStyle;rounded=0;orthogonalLoop=1;jettySize=auto;html=1;entryX=0.5;entryY=0;entryDx=0;entryDy=0;" edge="1" parent="1" source="uw-DFVBwl9FURzbB3nBO-40" target="uw-DFVBwl9FURzbB3nBO-19">
          <mxGeometry relative="1" as="geometry" />
        </mxCell>
        <mxCell id="uw-DFVBwl9FURzbB3nBO-46" style="edgeStyle=orthogonalEdgeStyle;rounded=0;orthogonalLoop=1;jettySize=auto;html=1;exitX=0.25;exitY=1;exitDx=0;exitDy=0;" edge="1" parent="1" source="uw-DFVBwl9FURzbB3nBO-40" target="uw-DFVBwl9FURzbB3nBO-23">
          <mxGeometry relative="1" as="geometry">
            <Array as="points">
              <mxPoint x="510" y="210" />
              <mxPoint x="110" y="210" />
            </Array>
          </mxGeometry>
        </mxCell>
        <mxCell id="uw-DFVBwl9FURzbB3nBO-40" value="&lt;span style=&quot;font-size: 15px;&quot;&gt;对上通讯&lt;/span&gt;" style="rounded=1;whiteSpace=wrap;html=1;" vertex="1" parent="1">
          <mxGeometry x="480" y="90" width="120" height="60" as="geometry" />
        </mxCell>
        <mxCell id="uw-DFVBwl9FURzbB3nBO-44" style="edgeStyle=orthogonalEdgeStyle;rounded=0;orthogonalLoop=1;jettySize=auto;html=1;entryX=0.855;entryY=0;entryDx=0;entryDy=4.35;entryPerimeter=0;startArrow=none;startFill=0;endArrow=block;exitX=0.5;exitY=0;exitDx=0;exitDy=0;endFill=1;" edge="1" parent="1">
          <mxGeometry relative="1" as="geometry">
            <mxPoint x="438.7" y="310" as="sourcePoint" />
            <mxPoint x="129.99999999999994" y="313.3499999999999" as="targetPoint" />
          </mxGeometry>
        </mxCell>
        <mxCell id="uw-DFVBwl9FURzbB3nBO-57" value="&lt;font style=&quot;font-size: 15px; color: rgb(0, 102, 0);&quot;&gt;&lt;b&gt;&lt;font style=&quot;&quot;&gt;采&lt;/font&gt;集层&lt;/b&gt;&lt;/font&gt;" style="text;html=1;align=center;verticalAlign=middle;whiteSpace=wrap;rounded=0;" vertex="1" parent="1">
          <mxGeometry x="695" y="710" width="60" height="30" as="geometry" />
        </mxCell>
        <mxCell id="uw-DFVBwl9FURzbB3nBO-58" value="&lt;font style=&quot;font-size: 15px; color: rgb(0, 102, 0);&quot;&gt;&lt;b&gt;业务层&lt;/b&gt;&lt;/font&gt;" style="text;html=1;align=center;verticalAlign=middle;whiteSpace=wrap;rounded=0;" vertex="1" parent="1">
          <mxGeometry x="690" y="400" width="60" height="30" as="geometry" />
        </mxCell>
        <mxCell id="uw-DFVBwl9FURzbB3nBO-59" value="&lt;font style=&quot;font-size: 15px; color: rgb(0, 102, 0);&quot;&gt;&lt;b&gt;交互层&lt;/b&gt;&lt;/font&gt;" style="text;html=1;align=center;verticalAlign=middle;whiteSpace=wrap;rounded=0;" vertex="1" parent="1">
          <mxGeometry x="680" y="105" width="60" height="30" as="geometry" />
        </mxCell>
      </root>
    </mxGraphModel>
  </diagram>
</mxfile>
